<?xml version="1.0" encoding="UTF-8"?>
<svg id="Layer_1" xmlns="http://www.w3.org/2000/svg" xmlns:xlink="http://www.w3.org/1999/xlink" version="1.1" viewBox="0 0 90 76.5">
  <!-- Generator: Adobe Illustrator 30.5.1, SVG Export Plug-In . SVG Version: 2.1.4 Build 3)  -->
  <defs>
    <style>
      .st0 {
        fill: none;
      }

      .st1 {
        fill-rule: evenodd;
      }

      .st2 {
        clip-path: url(#clippath);
      }
    </style>
    <clipPath id="clippath">
      <rect class="st0" x="0" width="90" height="76.5"/>
    </clipPath>
  </defs>
  <g class="st2">
    <path class="st1" d="M44.3,13.5c3.7-6.1,9.7-10.7,16.6-12.4,4.8-1.2,10-.8,14.6,1,4.5,1.8,8.5,5,11.1,9.1,2.8,4.6,3.7,10.2,3.2,15.6-1.2,11.5-8.4,20.6-16.6,28.2-4,3.7-8.1,7.1-12.4,10.4-4.1,3.1-8.3,6-12.7,8.5-1.3.7-2.5,1.5-4,2-2.8.8-5.2-.8-7.3-2.5-2-1.8-4-3.7-5.6-5.8-1.6-2-2.8-4.3-3.1-6.9-.3-2.8.7-5.3,1.8-7.8-.3.1-.7.2-1,.3-4.9,1.2-10.1.3-14.5-2.1-7-3.9-11.4-11.1-13.2-18.8C.3,28.1,0,23.7.3,19.4c.3-4.1,1.3-8.2,3.9-11.4,2.4-3,5.9-5,9.6-6.1,4.1-1.3,8.5-1.5,12.7-.7,7.4,1.4,13.9,6,17.8,12.4h0ZM30.7,42.3c-1.6.4-3.2.2-4.8,0-3.6-.5-7.2-1.8-10.1-4-1.8-1.4-3.4-3.3-4.2-5.6-.6-1.9-.7-4.4.9-5.9,1-.9,2.3-1.1,3.5-1.1,1.3,0,2.6.3,3.9,0,.4-.1.7-.2,1.1-.4,1.9-.8,3.5-2.3,5-3.7,1.8-1.6,3.6-3,5.9-3.8,2.1-.8,4.3-1.1,6.6-.9,2.8.2,5.6,1.2,7.8,2.9,1.7,1.3,3,2.9,4.1,4.7.3.6.6,1.2.8,1.8,0,.2.1.4.2.6,0,0,0,0,0,0,1.6-1.8,3.3-3.5,5.1-5.1.8-.7,1.6-1.5,2.6-1.8,1-.3,2.4,0,2.9,1,.3.6.3,1.2,0,1.7-.2.4-.4.8-.6,1.2-.4.8-.2.8.5,1.2.4.3.9.5,1.3.8,1.2.9,2.3,2.1,3,3.5.7,1.5.4,3.3,1.2,4.7.8,1.3,2.2,1.8,3.4,2.6,1.4.9,1.9,2.5,1.4,4.1-.8,2.5-2.9,4-5.3,4.8-1,.4-2.1.6-3.2.9-1.6.4-3.1.8-4.7,1,0,.3,0,.6,0,.9-.1,1.1-.3,2.2-.2,3.4.2,2.8,1.8,5.4,4.2,6.7.7.4,0,1.4-.6,1-3.4-2-5.1-5.5-4.8-9.5,0-.8.2-1.6.3-2.3-.2,0-.4,0-.5,0-.5,0-1,0-1.4,0-1.3-.2-2.5-.8-3.2-2-.9-1.4-.7-3.4.8-4.3,1.5-.8,3.5-.2,4.5,1.2.8,1.1,1.1,2.4,1.1,3.7.7-.1,1.5-.3,2.2-.5,1.5-.3,2.9-.7,4.4-1.1,1.1-.3,2-.7,3-1.3.9-.5,1.3-.9,1.9-1.8.7-1.2,1.1-2.9-.2-3.9-1.2-.8-2.5-1.3-3.4-2.4-.6-.7-1-1.6-1.1-2.5-.1-.7,0-1.4-.3-2.1-.4-1.5-1.7-2.8-2.8-3.7l-.4-.3-1.6-.9c-.6-.5-.7-1.2-.5-2,.2-.6,1-1.5.8-2.1-.3-.8-1.4-.7-2-.4-.9.5-1.7,1.3-2.4,2-.8.7-1.5,1.5-2.3,2.2-.9.9-1.7,1.8-2.6,2.8,0,0,0,.2,0,.3,0,.3.1.6.2.8.2.9.3,1.8.3,2.7,0,2.6-.6,5.2-2.2,7.3-1.4,1.9-3.6,3.5-6.1,3.1-.6,0-1.1-.3-1.7-.5-1.7,2.8-3.6,5.5-6.2,7.6-1.4,1.2-3,2.1-4.7,2.7-.6,1.3-1.2,2.6-1.6,3.9-.8,2.4-.8,4.9.3,7.3,1.5,3.3,4.4,6.1,7,8.5.9.8,1.9,1.7,3,2.2,2.9,1.5,4.8,0,7.3-1.4,7.4-4.3,14.3-9.5,20.7-15,7.8-6.8,15.8-14.7,19-24.8,1.6-4.9,2-10.2.8-15.2-1.1-4.7-3.8-8.8-7.6-11.7-3.6-2.8-8.1-4.4-12.7-4.7-4.6-.2-9.2,1.1-13.2,3.4-4,2.4-7.4,5.9-9.7,10-.2.4-.8.4-1,0-2.8-5-7.2-9-12.4-11.2-4-1.7-8.4-2.2-12.7-1.8-5.8.7-12,3.4-14.9,8.8-2,3.6-2.4,8-2.4,12.1,0,6.4,1.5,13,4.9,18.5,4,6.5,11,11.3,18.8,11.1,1.9,0,3.8-.4,5.5-1,1-2.3,1.9-5,1-7.5-.2-.6-.6-1.2-.9-1.7h0ZM31.8,42c.5.8.9,1.6,1.1,2.5.3,1.3.2,2.7,0,4-.2.8-.4,1.6-.7,2.4,1.3-.6,2.5-1.4,3.6-2.3,2.3-2,4.1-4.5,5.6-7.1-.9-.8-1.6-1.8-2-2.9-1-2.5-.7-5-.7-7.5,0-1.1,0-2.2,0-3.4,0-1.2,0-2.5.2-3.7.2-.8,1.3-.4,1.1.3-.2,1-.2,2.2-.2,3.2,0,1,0,2,0,3.1,0,2.4-.2,4.8.5,7.1.3,1,.9,2.1,1.7,2.8.2-.4.5-.8.7-1.2,2.4-4,4.9-7.7,7.8-11.2-.9-3.1-2.9-6-5.7-7.8-3.9-2.5-9.2-2.9-13.4-.9-.6.3-1.1.6-1.6.9-.7.4-1.3.9-1.9,1.4-2.3,1.9-4.7,4.4-7.7,5.3-1.1.3-2.2.2-3.4.2-.9,0-1.9-.2-2.7.2-.3.1-.6.3-.8.5-1.3,1.3-1,3.7-.3,5.2,1.8,4.1,6.2,6.6,10.4,7.7,1.8.5,4.7.9,6.7.6-.2-.3-.3-.6-.5-.9-.4-1-.6-2.2-.2-3.3.4-1,1.3-1.8,2.5-1.8,1.2.1,2.2,1,2.6,2.1.4,1.2-.1,2.5-.9,3.4-.5.5-1,.9-1.6,1.2h0ZM31.2,40.9c.8-.3,1.5-.9,1.9-1.7.3-.6.3-1.3,0-1.9-.2-.3-.5-.6-.9-.8-.9-.4-1.6.4-1.8,1.2-.2,1.1.3,2.2.9,3.1h0ZM42.9,41c.4.2.8.3,1.2.4,2.3.3,4.3-1.5,5.4-3.3,1.2-1.9,1.6-4.3,1.6-6.5,0-.8-.1-1.5-.3-2.2-1.5,1.8-2.9,3.7-4.2,5.6-1.3,2-2.5,4-3.7,6h0ZM58,46.5c0-.9,0-1.7-.5-2.5-.4-.8-1-1.4-1.8-1.6-.6-.2-1.4-.1-1.9.4-1.1,1.1,0,2.9,1.2,3.4.9.4,2,.5,3,.3h0Z"/>
  </g>
</svg>